HIERARCHY
ROOT Hips
{
	OFFSET 0.000000 0.000000 0.000000
	CHANNELS 6 Xposition Yposition Zposition Xrotation Yrotation Zrotation
	JOINT LeftUpLeg_virtual
	{
		OFFSET 0.000000 0.000000 0.000000
		CHANNELS 3 Xrotation Yrotation Zrotation
		JOINT LeftUpLeg
		{
			OFFSET 10.205400 -3.823500 0.155100
			CHANNELS 3 Xrotation Yrotation Zrotation
			JOINT LeftLeg
			{
				OFFSET 0.708757 -12.982077 0.567790
				CHANNELS 3 Xrotation Yrotation Zrotation
				JOINT LeftFoot
				{
					OFFSET -0.708756 -10.717838 -2.184338
					CHANNELS 3 Xrotation Yrotation Zrotation
					JOINT LeftToeBase
					{
						OFFSET 0.108149 -7.191104 7.560241
						CHANNELS 3 Xrotation Yrotation Zrotation
						JOINT LeftToe_End
						{
							OFFSET 0.070230 0.081724 4.490308
							CHANNELS 3 Xrotation Yrotation Zrotation
							End Site
							{
								OFFSET 0 0 0
							}
						}
					}
				}
			}
		}
	}
	JOINT RightUpLeg_virtual
	{
		OFFSET 0.000000 0.000000 0.000000
		CHANNELS 3 Xrotation Yrotation Zrotation
		JOINT RightUpLeg
		{
			OFFSET -10.205400 -3.823500 0.005500
			CHANNELS 3 Xrotation Yrotation Zrotation
			JOINT RightLeg
			{
				OFFSET -0.708756 -12.982134 0.610632
				CHANNELS 3 Xrotation Yrotation Zrotation
				JOINT RightFoot
				{
					OFFSET 0.708754 -10.717769 -1.945823
					CHANNELS 3 Xrotation Yrotation Zrotation
					JOINT RightToeBase
					{
						OFFSET -0.108140 -7.191069 7.372968
						CHANNELS 3 Xrotation Yrotation Zrotation
						JOINT RightToe_End
						{
							OFFSET -0.070227 0.081735 4.479403
							CHANNELS 3 Xrotation Yrotation Zrotation
							End Site
							{
								OFFSET 0 0 0
							}
						}
					}
				}
			}
		}
	}
	JOINT Spine_virtual
	{
		OFFSET 0.000000 0.000000 0.000000
		CHANNELS 3 Xrotation Yrotation Zrotation
		JOINT Spine
		{
			OFFSET 0.000000 6.876099 0.125700
			CHANNELS 3 Xrotation Yrotation Zrotation
			JOINT Spine1
			{
				OFFSET 0.000000 5.730043 0.104720
				CHANNELS 3 Xrotation Yrotation Zrotation
				JOINT Spine1_split
				{
					OFFSET 0.000000 5.730043 0.104720
					CHANNELS 3 Xrotation Yrotation Zrotation
					JOINT Spine2
					{
						OFFSET 0.000000 5.730043 0.104720
						CHANNELS 3 Xrotation Yrotation Zrotation
						JOINT Neck_virtual
						{
							OFFSET 0.000000 0.000000 0.000000
							CHANNELS 3 Xrotation Yrotation Zrotation
							JOINT Neck
							{
								OFFSET 0.000000 10.314075 0.188496
								CHANNELS 3 Xrotation Yrotation Zrotation
								JOINT Head
								{
									OFFSET 0.000000 7.643700 -2.377400
									CHANNELS 3 Xrotation Yrotation Zrotation
									JOINT HeadTop_End
									{
										OFFSET 0.000000 43.788605 -13.619600
										CHANNELS 3 Xrotation Yrotation Zrotation
										End Site
										{
											OFFSET 0 0 0
										}
									}
								}
							}
						}
						JOINT LeftShoulder_virtual
						{
							OFFSET 0.000000 0.000000 0.000000
							CHANNELS 3 Xrotation Yrotation Zrotation
							JOINT LeftShoulder
							{
								OFFSET 2.196100 4.412489 0.087492
								CHANNELS 3 Xrotation Yrotation Zrotation
								JOINT LeftShoulder_split
								{
									OFFSET 2.196100 4.412489 0.087492
									CHANNELS 3 Xrotation Yrotation Zrotation
									JOINT LeftArm
									{
										OFFSET 8.771219 -2.981674 -0.026999
										CHANNELS 3 Xrotation Yrotation Zrotation
										JOINT LeftForeArm
										{
											OFFSET 8.512804 0.000000 -0.000000
											CHANNELS 3 Xrotation Yrotation Zrotation
											JOINT LeftHand
											{
												OFFSET 18.484802 0.000000 -0.000000
												CHANNELS 3 Xrotation Yrotation Zrotation
												End Site
												{
													OFFSET 0 0 0
												}
											}
										}
									}
								}
							}
						}
						JOINT RightShoulder_virtual
						{
							OFFSET 0.000000 0.000000 0.000000
							CHANNELS 3 Xrotation Yrotation Zrotation
							JOINT RightShoulder
							{
								OFFSET -2.196100 4.412496 0.070690
								CHANNELS 3 Xrotation Yrotation Zrotation
								JOINT RightShoulder_split
								{
									OFFSET -2.196100 4.412496 0.070690
									CHANNELS 3 Xrotation Yrotation Zrotation
									JOINT RightArm
									{
										OFFSET -8.771282 -2.981682 -0.094208
										CHANNELS 3 Xrotation Yrotation Zrotation
										JOINT RightForeArm
										{
											OFFSET -8.494598 0.000000 0.000000
											CHANNELS 3 Xrotation Yrotation Zrotation
											JOINT RightHand
											{
												OFFSET -18.483803 0.000000 0.000001
												CHANNELS 3 Xrotation Yrotation Zrotation
												End Site
												{
													OFFSET 0 0 0
												}
											}
										}
									}
								}
							}
						}
					}
				}
			}
		}
	}
}
MOTION
Frames: 11
Frame Time: 0.03333333
-0.963596 34.194248 -2.289337 0.000000 0.000000 0.000000 -5.429080 -11.390834 -8.689528 -20.298830 26.611865 27.214636 25.036875 -1.964165 -3.995618 -17.056377 2.877102 -12.250746 1.725194 -2.492261 1.162617 0.000000 0.000000 0.000000 -5.470158 -8.302664 -8.328722 -7.213340 -3.399245 -12.312339 17.130645 -12.829683 3.542073 -4.929822 1.476947 16.941290 -11.628910 3.839834 -7.889676 0.000000 0.000000 0.000000 -9.299536 -7.186666 -9.068989 15.575406 14.071445 -4.641849 -7.464277 -1.005532 -4.527256 0.132280 -0.594729 0.232325 0.000000 0.000000 0.000000 -16.271182 4.668310 -3.567519 7.924408 45.502645 -20.727119 -70.331742 2.999360 -118.504492 0.000000 0.000000 0.000000 -22.665961 1.209796 -4.118641 3.197429 -9.323307 -13.827180 10.175589 -4.412226 -6.075580 -19.432790 -8.952523 -60.175039 4.454573 16.356607 5.889631 0.000000 0.000000 0.000000 -30.403771 0.213785 -0.406529 14.139963 -10.663836 39.885627 -4.920443 -13.870117 -12.133235 -10.797420 65.923176 93.222185 -84.472658 -50.230140 -55.819400 0.000000 0.000000 0.000000 
-0.914893 34.135971 -2.336966 0.000000 0.000000 0.000000 -5.483522 -11.337367 -8.605054 -20.605303 26.225249 27.316664 25.295378 -2.026567 -4.081184 -16.548840 2.782835 -12.543262 1.742614 -2.456525 1.205502 0.000000 0.000000 0.000000 -5.448955 -8.052697 -8.295458 -7.317927 -3.424588 -12.138912 17.293300 -12.911509 3.563656 -4.415075 1.228941 16.995438 -11.603932 3.897484 -7.835789 0.000000 0.000000 0.000000 -9.331029 -7.242504 -9.003508 15.672675 14.040474 -4.799379 -7.478086 -1.011594 -4.610415 0.166677 -0.558688 0.213869 0.000000 0.000000 0.000000 -16.396373 4.637189 -3.535342 7.524159 45.478357 -20.426181 -70.293056 2.760126 -118.577575 0.000000 0.000000 0.000000 -22.833314 1.242350 -4.128104 3.119000 -8.831373 -14.067176 10.116711 -4.836109 -5.932159 -19.431861 -9.143197 -59.908764 4.408692 16.406234 5.772569 0.000000 0.000000 0.000000 -30.488534 0.228425 -0.420933 14.020400 -10.839310 39.790056 -4.095591 -12.401978 -11.774575 -11.120236 65.777023 93.974981 -84.095447 -50.027215 -55.306538 0.000000 0.000000 0.000000 
-0.851176 34.070660 -2.386491 0.000000 0.000000 0.000000 -5.471372 -11.486501 -8.647381 -21.296952 25.890177 27.603445 25.947887 -1.907450 -4.086159 -16.244953 2.698290 -12.216487 1.598362 -2.361212 1.045613 0.000000 0.000000 0.000000 -5.428830 -7.864735 -8.329868 -7.450045 -3.581041 -11.689085 17.434519 -12.992987 3.514579 -3.756838 0.641344 16.890254 -11.835471 3.950280 -7.602425 0.000000 0.000000 0.000000 -9.439994 -7.226902 -9.021710 15.688050 13.962839 -5.043746 -7.450953 -0.985518 -4.661835 0.146350 -0.540507 0.195225 0.000000 0.000000 0.000000 -16.494685 4.621668 -3.475791 7.145353 45.373824 -20.042910 -70.367273 2.443701 -118.180332 0.000000 0.000000 0.000000 -22.922991 1.295677 -4.090214 3.094191 -8.495846 -14.148549 10.189450 -5.393552 -5.975514 -19.370193 -9.299177 -59.265319 4.486126 16.232588 5.539579 0.000000 0.000000 0.000000 -30.495569 0.269691 -0.418464 13.737141 -11.282139 39.695656 -3.143736 -11.055755 -11.373725 -11.474173 65.784639 94.693859 -83.662482 -49.863608 -54.736521 0.000000 0.000000 0.000000 
-0.784183 34.038673 -2.477869 0.000000 0.000000 0.000000 -5.334680 -11.865277 -8.813802 -22.280302 25.661265 27.921202 26.903700 -1.690477 -4.007514 -16.106339 2.602886 -11.526275 1.453270 -2.206785 0.681108 0.000000 0.000000 0.000000 -5.334337 -7.712550 -8.411632 -7.479288 -3.780200 -10.960785 17.150600 -13.071422 3.177894 -3.472088 -0.296664 16.287979 -11.832714 3.983108 -7.262772 0.000000 0.000000 0.000000 -9.440255 -7.240935 -9.093781 15.538573 13.884985 -5.349266 -7.385531 -0.916112 -4.659497 0.073646 -0.502408 0.190145 0.000000 0.000000 0.000000 -16.528129 4.637444 -3.392988 6.768265 45.174898 -19.584673 -70.558108 2.068916 -117.320944 0.000000 0.000000 0.000000 -22.912419 1.383042 -4.003465 3.115102 -8.377327 -14.161041 10.364319 -6.071215 -6.064308 -19.315454 -9.526360 -58.373228 4.683456 15.862486 5.174475 0.000000 0.000000 0.000000 -30.403863 0.350472 -0.392367 13.320163 -11.939719 39.594941 -2.264700 -10.274963 -10.852967 -11.693649 65.866130 95.123689 -83.194928 -49.813061 -54.152964 0.000000 0.000000 0.000000 
-0.689285 34.060513 -2.623939 0.000000 0.000000 0.000000 -5.003258 -12.337197 -9.044531 -23.372981 25.554171 28.107185 27.950454 -1.504723 -3.819969 -15.933954 2.436067 -10.852675 1.348760 -2.012264 0.193236 0.000000 0.000000 0.000000 -5.117074 -7.595461 -8.519793 -7.541362 -3.911178 -10.111024 16.447674 -13.054354 2.530708 -3.464191 -1.345255 15.159965 -11.296510 4.020387 -6.945527 0.000000 0.000000 0.000000 -9.214644 -7.332941 -9.153946 15.212747 13.848536 -5.701444 -7.292777 -0.801527 -4.605359 0.032306 -0.438570 0.188475 0.000000 0.000000 0.000000 -16.468689 4.688655 -3.289080 6.342973 44.880295 -19.044470 -70.842770 1.689631 -116.030762 0.000000 0.000000 0.000000 -22.811058 1.509897 -3.883593 3.161716 -8.457220 -14.195955 10.549062 -6.663136 -6.011225 -19.286683 -9.963904 -57.348133 4.999006 15.303792 4.669251 0.000000 0.000000 0.000000 -30.196277 0.477580 -0.342490 12.802600 -12.723568 39.469751 -1.491758 -10.121324 -10.101254 -11.494229 65.926987 94.956391 -82.689173 -49.952944 -53.583869 0.000000 0.000000 0.000000 
-0.540598 34.133957 -2.827545 0.000000 0.000000 0.000000 -4.472437 -12.711734 -9.258722 -24.412080 25.644469 28.009089 28.884645 -1.414427 -3.551505 -15.642725 2.193448 -10.440585 1.210828 -1.812796 -0.279263 0.000000 0.000000 0.000000 -4.823609 -7.673940 -8.667109 -7.872505 -3.954719 -9.416191 15.653431 -12.823974 1.815916 -2.909673 -2.191499 14.057094 -10.629706 4.111455 -6.814522 0.000000 0.000000 0.000000 -8.771565 -7.512425 -9.197060 14.800144 13.875780 -6.089357 -7.184021 -0.648821 -4.518747 0.039456 -0.345070 0.187206 0.000000 0.000000 0.000000 -16.306225 4.768056 -3.159487 5.854640 44.513729 -18.418940 -71.202878 1.340012 -114.378177 0.000000 0.000000 0.000000 -22.644915 1.663532 -3.753254 3.216759 -8.623230 -14.321826 10.605042 -6.934852 -5.872341 -19.261984 -10.718857 -56.286172 5.392479 14.557483 4.021741 0.000000 0.000000 0.000000 -29.860955 0.650827 -0.282992 12.199714 -13.501153 39.295260 -0.885095 -10.166203 -9.218023 -10.720078 65.885261 94.030108 -82.122807 -50.356461 -53.028438 0.000000 0.000000 0.000000 
-0.332087 34.244122 -3.033888 0.000000 0.000000 0.000000 -3.808447 -12.893227 -9.377012 -25.210544 26.034069 27.583570 29.492381 -1.352982 -3.218388 -15.317056 1.961338 -10.306768 0.936909 -1.640996 -0.608289 0.000000 0.000000 0.000000 -4.520556 -8.044198 -8.831593 -8.738143 -3.888381 -8.995284 14.970689 -12.169507 1.202574 -1.412122 -2.599161 13.765716 -10.516537 4.280711 -7.021911 0.000000 0.000000 0.000000 -8.256446 -7.880250 -9.205819 14.496293 13.930046 -6.547687 -7.082717 -0.473185 -4.397458 0.059697 -0.264278 0.172997 0.000000 0.000000 0.000000 -16.046686 4.850711 -3.011432 5.253048 44.107763 -17.696773 -71.610900 1.036251 -112.462582 0.000000 0.000000 0.000000 -22.438350 1.825799 -3.627063 3.272712 -8.717611 -14.508949 10.454623 -6.940480 -5.790202 -19.180746 -11.816691 -55.274163 5.798184 13.655090 3.237627 0.000000 0.000000 0.000000 -29.419684 0.847283 -0.212781 11.534415 -14.154202 39.069368 -0.551973 -10.198751 -8.184046 -9.463107 65.692459 92.460469 -81.457820 -51.032783 -52.429888 0.000000 0.000000 0.000000 
-0.051078 34.337952 -3.274772 0.000000 0.000000 0.000000 -3.176255 -13.004235 -9.365476 -25.724292 26.742550 26.946133 29.737107 -1.239123 -2.864671 -14.959137 1.848703 -10.415612 0.680775 -1.506953 -0.777810 0.000000 0.000000 0.000000 -4.184453 -8.831753 -8.975222 -10.210964 -3.672781 -8.923535 14.562882 -11.039172 0.713644 0.646904 -2.452386 14.229634 -10.912266 4.514272 -7.623162 0.000000 0.000000 0.000000 -7.779620 -8.552875 -9.144162 14.485520 13.966839 -7.164880 -7.026685 -0.300875 -4.253274 0.071946 -0.200406 0.155044 0.000000 0.000000 0.000000 -15.733011 4.916021 -2.858446 4.497796 43.716950 -16.879136 -72.004401 0.810089 -110.382680 0.000000 0.000000 0.000000 -22.221911 1.980769 -3.507864 3.335628 -8.607230 -14.662019 10.319171 -6.769556 -5.745020 -18.945773 -13.172918 -54.316519 6.123390 12.577495 2.348419 0.000000 0.000000 0.000000 -28.925247 1.034388 -0.137124 10.835927 -14.625617 38.812803 -0.507121 -10.179238 -7.164080 -7.829355 65.385893 90.431015 -80.646079 -51.938606 -51.697961 0.000000 0.000000 0.000000 
0.283275 34.366951 -3.556005 0.000000 0.000000 0.000000 -2.757223 -13.447625 -9.227589 -26.024674 27.726550 26.311765 29.829547 -1.034875 -2.581204 -14.523714 1.891294 -10.759919 0.550586 -1.416581 -0.769976 0.000000 0.000000 0.000000 -3.835628 -9.993669 -9.028728 -12.108580 -3.354842 -9.153517 14.631973 -9.743653 0.385043 2.513581 -1.987144 14.528043 -10.682063 4.727551 -8.554068 0.000000 0.000000 0.000000 -7.402269 -9.610550 -9.024109 14.874853 13.925519 -7.983163 -7.008035 -0.147149 -4.088289 0.069718 -0.140164 0.151950 0.000000 0.000000 0.000000 -15.414465 4.948896 -2.711902 3.579015 43.393155 -15.973473 -72.319962 0.676722 -108.192205 0.000000 0.000000 0.000000 -21.979842 2.106306 -3.386129 3.421407 -8.173605 -14.690878 10.221621 -6.508129 -5.707936 -18.510632 -14.709888 -53.343163 6.293691 11.387828 1.394349 0.000000 0.000000 0.000000 -28.408997 1.188978 -0.068356 10.119531 -14.866023 38.545903 -0.799504 -10.126009 -6.357118 -5.996949 64.998095 88.186710 -79.626571 -52.989011 -50.726978 0.000000 0.000000 0.000000 
0.628152 34.319458 -3.820259 0.000000 0.000000 0.000000 -2.629641 -14.389387 -8.965606 -26.123867 28.868723 25.771050 29.944092 -0.770372 -2.389135 -14.039158 2.016856 -11.312408 0.369025 -1.375436 -0.509268 0.000000 0.000000 0.000000 -3.553392 -11.482030 -8.897505 -14.426152 -3.023428 -9.645553 15.139978 -8.451183 0.233364 3.963990 -1.370882 14.369536 -9.300189 4.838415 -9.707164 0.000000 0.000000 0.000000 -7.191493 -11.054309 -8.882599 15.640483 13.724361 -8.956037 -7.011016 -0.028115 -3.902061 0.072364 -0.111039 0.149159 0.000000 0.000000 0.000000 -15.119139 4.948005 -2.578480 2.490922 43.168073 -14.994087 -72.520292 0.605747 -105.918790 0.000000 0.000000 0.000000 -21.676758 2.183438 -3.260094 3.559902 -7.355736 -14.546766 10.076646 -6.245248 -5.649232 -17.833542 -16.307606 -52.290217 6.314589 10.096023 0.424815 0.000000 0.000000 0.000000 -27.890867 1.296757 -0.002013 9.404739 -14.903825 38.269372 -1.241946 -9.992231 -5.718499 -4.177969 64.537371 85.914737 -78.300455 -54.073604 -49.398308 0.000000 0.000000 0.000000 
0.995599 34.213787 -4.073025 0.000000 0.000000 0.000000 -2.756142 -15.687882 -8.596993 -26.009155 30.081369 25.283900 30.133524 -0.455740 -2.299463 -13.673072 2.138012 -11.926168 0.018675 -1.385433 0.013282 0.000000 0.000000 0.000000 -3.384488 -13.352835 -8.594361 -17.169974 -2.687485 -10.522074 15.970012 -7.007818 0.316452 5.590705 -0.370817 14.602656 -7.677346 4.864678 -10.984005 0.000000 0.000000 0.000000 -7.104483 -12.848353 -8.768677 16.673585 13.319639 -10.001954 -7.003305 0.051114 -3.696367 0.070149 -0.110705 0.143285 0.000000 0.000000 0.000000 -14.853539 4.919191 -2.428819 1.309545 43.040601 -13.985017 -72.547537 0.552897 -103.582155 0.000000 0.000000 0.000000 -21.297303 2.207572 -3.121568 3.737503 -6.212168 -14.284635 9.823940 -5.845154 -5.546924 -16.932423 -17.837423 -51.127262 6.226378 8.716131 -0.500280 0.000000 0.000000 0.000000 -27.361652 1.364654 0.070457 8.712267 -14.768464 37.966324 -1.593557 -9.803187 -5.260776 -2.581417 64.015770 83.753378 -76.625912 -55.115337 -47.672063 0.000000 0.000000 0.000000 
